PathFileType	4	(X/Y/Z)	Run_400 01
DataRate	CameraRate	NumFrames	NumMarkers	Units	OrigDataRate	OrigDataStartFrame	OrigNumFrames
120	120	8	42	mm	120	10	128
Frame#	Time	LASI			RASI			LPSI			RTH1			RTH2			RTH3			LTH1			LTH2			LTH3			RTB1			RTB2			RTB3			LTB1			LTB2			LTB3			RCAL			RTOE			RMT5			LCAL			LTOE			LMT5			LACR			RACR			CLAV			C7			RUA1			RUA2			RUA3			RLEL			RMEL			LUA1			LUA2			LUA3			LLEL			LMEL			RFAsuperior			RFAradius			LFAsuperior			LFAradius			LFAulna			RFAulna			RPSI		
		X1	Y1	Z1	X2	Y2	Z2	X3	Y3	Z3	X4	Y4	Z4	X5	Y5	Z5	X6	Y6	Z6	X7	Y7	Z7	X8	Y8	Z8	X9	Y9	Z9	X10	Y10	Z10	X11	Y11	Z11	X12	Y12	Z12	X13	Y13	Z13	X14	Y14	Z14	X15	Y15	Z15	X16	Y16	Z16	X17	Y17	Z17	X18	Y18	Z18	X19	Y19	Z19	X20	Y20	Z20	X21	Y21	Z21	X22	Y22	Z22	X23	Y23	Z23	X24	Y24	Z24	X25	Y25	Z25	X26	Y26	Z26	X27	Y27	Z27	X28	Y28	Z28	X29	Y29	Z29	X30	Y30	Z30	X31	Y31	Z31	X32	Y32	Z32	X33	Y33	Z33	X34	Y34	Z34	X35	Y35	Z35	X36	Y36	Z36	X37	Y37	Z37	X38	Y38	Z38	X39	Y39	Z39	X40	Y40	Z40	X41	Y41	Z41	X42	Y42	Z42	

10	  0.083333	1114.215592	948.039568	-437.718157	1100.762915	962.493918	-199.483105	946.209116	999.245375	-385.915311	1036.700756	807.453988	-155.336050	1123.272999	667.709442	-183.451949	1071.878672	570.082644	-211.623908	1084.273352	784.886749	-497.598136	1204.277596	723.759599	-488.192975	1188.868558	590.266008	-482.869847	1084.572601	343.012570	-291.862416	1014.135784	309.870903	-234.815604	977.237358	195.887531	-305.048577	1129.772786	462.963904	-420.574187	1036.584879	518.104703	-464.560656	938.109191	507.223635	-396.486340	794.497069	105.584515	-330.015165	1005.538606	 72.174602	-345.975473	982.272784	 45.255147	-238.256349	828.755860	641.481743	-382.155601	777.878276	441.902583	-349.933789	753.037953	455.622610	-454.968720	1101.764946	1442.851551	-493.653806	1116.117884	1415.913664	-123.143410	1181.758749	1381.720585	-290.208677	1067.807615	1473.877566	-314.316751	1087.562058	1326.341650	-82.577167	1089.274850	1236.891710	-104.307888	1002.049689	1240.993113	-78.728692	970.184460	1131.015223	-63.401510	951.607122	1129.263847	-128.543851	1049.671123	1384.261103	-544.321292	979.450181	1348.890763	-509.356251	1004.388188	1292.396382	-567.154077	898.968757	1232.554140	-596.548886	873.896049	1230.246170	-528.647899	1056.272781	1087.209849	-64.847556	1178.612584	965.729543	-107.412460	960.505280	1171.034861	-598.964493	1062.290361	1009.189736	-533.148761	1007.500353	989.147815	-571.940065	1125.234588	919.635439	-112.022097	935.207207	1005.753275	-288.993739	
11	  0.091667	1113.447859	951.779368	-437.821738	1100.032230	963.886747	-198.001455	945.917398	1003.131550	-385.673679	1033.103365	809.757221	-154.636295	1110.654987	666.138062	-183.757810	1054.067362	570.676482	-210.949852	1087.975781	791.714746	-498.419810	1212.561154	738.607224	-488.347360	1205.344591	604.905848	-485.343601	1058.074797	342.149095	-289.436674	985.675959	311.306928	-234.326052	947.113100	198.005593	-303.631869	1153.915696	470.686111	-421.873632	1056.213006	518.787047	-465.276351	959.578441	500.045844	-397.516625	762.945235	112.288418	-328.655675	972.480916	 72.990990	-345.445931	948.205329	 44.622155	-238.909380	838.477590	624.976832	-381.675271	806.115200	421.367320	-352.107628	779.683648	434.487110	-457.087112	1097.477617	1446.413117	-494.060056	1120.623448	1421.050863	-124.400944	1182.288062	1385.771090	-292.986730	1067.762902	1477.433012	-314.263424	1093.532314	1331.436965	-83.415148	1096.739193	1241.924358	-104.365809	1009.368135	1244.708370	-78.061062	980.262105	1133.683424	-62.009909	960.337127	1131.464201	-127.147424	1042.964225	1389.817133	-543.435751	973.759294	1354.817094	-505.462839	995.465794	1299.005565	-565.678561	887.849777	1241.139989	-592.142574	866.050044	1237.838256	-523.015565	1069.078898	1094.044148	-65.481649	1197.459093	981.982957	-114.053138	947.667380	1178.665844	-598.212906	1050.181710	1014.930972	-538.343895	994.347362	996.320623	-575.468876	1147.576815	932.880476	-116.020522	935.742011	1009.049480	-287.545018	
12	  0.100000	1113.146224	956.210016	-437.765035	1099.776976	965.621669	-196.853697	945.951166	1007.622788	-385.370652	1029.079067	812.325854	-154.194914	1097.987635	665.419627	-184.194640	1036.255031	572.421973	-210.298769	1091.923258	799.114405	-499.296627	1220.235066	754.104267	-488.387899	1220.951071	620.500411	-487.929449	1031.719793	342.727386	-287.470656	957.665745	314.043704	-233.507145	917.472559	201.266906	-301.939246	1177.319100	478.802383	-423.066871	1075.407556	519.400960	-465.904873	980.971382	492.391395	-398.470046	732.014421	120.143460	-326.925840	939.548608	 73.992146	-344.798496	914.225957	 44.237816	-239.189948	848.627443	606.801279	-381.020530	835.333201	400.591954	-354.285069	807.084133	412.653751	-459.014360	1093.236982	1450.793049	-494.392716	1125.016820	1426.719392	-125.780330	1182.762053	1390.476540	-295.818945	1067.710321	1481.421059	-314.353405	1099.519777	1337.022429	-84.347638	1103.919782	1247.622254	-104.397352	1016.435445	1249.260662	-77.236478	989.787442	1137.312589	-60.557317	968.963439	1134.753646	-125.764977	1036.374506	1396.312021	-542.400031	968.149728	1361.534768	-501.832205	986.760024	1306.537452	-564.164192	877.012208	1250.487614	-587.491576	858.561231	1246.161802	-517.354125	1081.107671	1101.832409	-65.933203	1215.085585	999.572132	-120.516163	935.387136	1187.398506	-597.149780	1039.029736	1022.185538	-542.960644	982.108849	1004.658559	-578.324918	1168.791835	947.576495	-120.073482	936.783455	1012.715262	-286.504110	
13	  0.108333	1113.608988	961.751978	-437.454931	1100.197674	968.024659	-196.143771	946.496083	1013.061756	-384.930551	1024.497754	815.444248	-154.139829	1085.384928	666.115401	-184.863367	1018.599418	576.057398	-209.643745	1096.250566	807.606502	-500.358992	1226.919022	770.471094	-488.249940	1234.987146	637.397671	-490.560138	1005.757049	345.582311	-286.158637	930.520236	318.832652	-232.132691	888.790423	206.327310	-299.836326	1199.465620	487.403805	-424.160754	1093.855726	519.841097	-466.414711	1002.220283	483.988842	-399.277228	702.315113	129.851715	-324.649248	906.915923	 75.149328	-343.981805	880.437715	 44.172984	-238.951593	859.676385	586.057252	-380.120485	866.199348	379.459257	-356.457239	835.812961	389.813928	-460.620990	1089.122139	1456.428471	-494.586010	1129.209355	1433.213575	-127.345468	1183.174421	1396.210434	-298.717797	1067.670127	1486.116203	-314.669027	1105.414656	1343.421623	-85.410121	1110.590973	1254.337342	-104.448253	1023.088918	1255.097036	-76.226721	998.424223	1142.431043	-58.998587	977.284515	1139.698507	-124.382612	1030.087978	1404.213444	-541.113760	962.776944	1369.502034	-498.599421	978.527421	1315.443484	-562.580948	866.790982	1261.022709	-582.580135	851.654422	1255.653780	-511.727671	1091.859239	1111.102551	-66.132181	1230.632991	1019.141857	-126.640048	924.152531	1197.800922	-595.587096	1029.380947	1031.724319	-546.695650	971.339721	1014.765721	-580.112518	1188.078447	964.421177	-124.179681	938.526095	1017.088706	-285.893080	
14	  0.116667	1114.883300	968.452934	-436.884172	1101.214012	971.299288	-195.777052	947.544008	1019.452147	-384.276088	1019.653524	819.386176	-154.419379	1073.146137	668.389527	-185.773351	1001.445197	581.734117	-208.880929	1100.934669	817.501121	-501.724324	1232.520306	787.372507	-487.920332	1247.003064	655.131510	-492.950492	980.522793	350.746122	-285.241532	904.573177	325.702837	-230.130739	861.502688	213.203233	-297.318643	1220.148211	496.207617	-425.280030	1111.457732	519.928029	-466.835950	1023.398776	474.808147	-399.909447	674.398885	141.528642	-321.899050	874.771392	 76.225551	-343.045876	846.924159	 44.337653	-238.322696	872.139173	562.824677	-379.062409	899.002137	358.056412	-358.564474	866.242399	366.167320	-461.859020	1085.254902	1463.255837	-494.605932	1133.153123	1440.510625	-129.102804	1183.566528	1402.965971	-301.637945	1067.687876	1491.578290	-315.207910	1110.987530	1350.717688	-86.569338	1116.615382	1262.013341	-104.640385	1029.263747	1262.169496	-75.152755	1006.119082	1149.017198	-57.308596	985.059777	1146.219682	-122.964361	1024.348788	1413.383745	-539.578467	957.866490	1378.748817	-495.748269	971.035435	1325.574273	-560.922729	857.523754	1272.724565	-577.631270	845.393266	1266.361181	-506.284373	1101.209337	1121.847269	-66.133799	1243.747785	1040.420484	-132.337621	914.276290	1209.743135	-593.517884	1021.260351	1043.363550	-549.554013	962.134659	1026.515876	-580.815063	1205.083783	983.162227	-128.267723	940.832328	1022.361814	-285.349982	
15	  0.125000	1116.792914	976.087534	-436.123900	1102.681694	975.390436	-195.689101	948.962577	1026.578020	-383.357099	1015.141161	824.313284	-154.855895	1061.612414	672.090806	-186.807737	985.188612	589.138671	-207.839910	1105.840497	828.792555	-503.370424	1237.132232	804.154261	-487.406816	1256.810624	672.723934	-494.758216	956.309236	357.733952	-284.048436	880.012702	334.222306	-227.536307	835.963449	221.481753	-294.369929	1239.414967	504.748529	-426.549087	1128.343883	519.397844	-467.221225	1044.819957	464.954633	-400.424873	648.709875	154.888228	-318.886811	843.255940	 76.970553	-342.103621	813.722684	 44.642263	-237.565802	886.480520	537.785112	-378.074893	933.765385	336.693664	-360.458771	898.624371	342.227200	-462.724432	1081.774719	1470.879336	-494.470220	1136.846840	1448.376058	-131.041710	1183.984579	1410.469419	-304.494632	1067.810052	1497.704505	-315.900984	1116.026164	1358.792364	-87.759308	1121.941003	1270.333453	-105.097018	1034.930013	1270.143769	-74.185217	1013.005649	1156.717657	-55.478898	992.156672	1153.880760	-121.474397	1019.369294	1423.315541	-537.911970	953.629568	1389.025623	-493.185721	964.472228	1336.424782	-559.215707	849.422533	1285.265016	-572.914322	839.753624	1278.064384	-501.159941	1109.303039	1133.743624	-66.046100	1254.483756	1062.542294	-137.647941	905.803052	1222.647327	-591.085308	1014.376535	1056.333572	-551.665931	954.295941	1039.316247	-580.675799	1219.802933	1002.994699	-132.264544	943.467942	1028.458269	-284.472585	
16	  0.133333	1119.040576	984.341233	-435.304113	1104.560796	979.976441	-195.992832	950.618964	1034.177300	-382.171890	1011.553406	830.160491	-155.245638	1051.000171	676.895833	-187.766691	970.109209	597.754673	-206.351256	1110.811578	841.130361	-505.060903	1240.889173	820.170205	-486.729748	1264.450345	689.199802	-495.811318	933.287875	365.992515	-281.870317	856.869224	343.900743	-224.411037	812.400850	230.661977	-290.879662	1257.434657	512.643443	-427.905701	1144.806201	517.940576	-467.610412	1066.905501	454.568939	-400.962613	625.552184	169.538149	-315.772099	812.464752	 77.372056	-341.226528	780.884289	 45.172763	-236.875119	902.991165	511.693816	-377.447065	970.324345	315.865741	-361.929946	933.129324	318.534850	-463.203851	1078.798626	1478.833255	-494.243195	1140.320520	1456.535584	-133.152909	1184.444717	1418.370690	-307.201628	1068.067965	1504.311178	-316.646702	1120.466120	1367.418786	-88.922385	1126.581534	1278.951120	-105.842915	1040.037575	1278.690269	-73.412690	1019.250192	1165.146218	-53.521797	998.578398	1162.251948	-119.884164	1015.241187	1433.475253	-536.290474	950.172821	1399.995213	-490.830146	958.874291	1347.485096	-557.505158	842.495112	1298.221734	-568.561055	834.714414	1290.458285	-496.395142	1116.363515	1146.427346	-65.951728	1263.099800	1084.566300	-142.692175	898.523900	1235.877467	-588.493984	1008.420019	1069.826622	-553.112912	947.579229	1052.512353	-579.977985	1232.389379	1023.087291	-136.202421	946.312475	1035.064296	-283.124400	
17	  0.141667	1121.322984	992.938465	-434.590120	1106.893069	984.647159	-196.902875	952.470660	1042.040136	-380.768057	1009.193034	836.629555	-155.431045	1041.344267	682.425241	-188.474406	956.289814	607.105965	-204.382512	1115.714561	853.960532	-506.449683	1243.889016	834.955172	-485.943253	1270.121647	703.945923	-496.211687	911.564614	375.181762	-278.443294	835.081507	354.434266	-220.825134	790.887608	240.388601	-286.740904	1274.374336	519.729864	-429.040393	1161.179856	515.290649	-468.030592	1089.931756	443.798864	-401.660246	605.093067	185.187019	-312.524123	782.510498	 77.782524	-340.339818	748.599143	 46.265419	-236.254581	921.759471	485.068865	-377.416351	1008.352375	296.117455	-362.804633	969.809805	295.477988	-463.252133	1076.386157	1486.753809	-494.005902	1143.604987	1464.788457	-135.409828	1184.935241	1426.369197	-309.700692	1068.479156	1511.182491	-317.349799	1124.407557	1376.354861	-90.028221	1130.599908	1287.643606	-106.753146	1044.533299	1287.634224	-72.786547	1024.953933	1174.038852	-51.479985	1004.319982	1171.068416	-118.164829	1011.918054	1443.509537	-534.848499	947.477965	1411.327370	-488.641567	954.131099	1358.441254	-555.829314	836.586707	1311.215669	-564.545939	830.288373	1303.259785	-491.936256	1122.553325	1159.601236	-65.894329	1269.905788	1105.820718	-147.550373	892.110662	1248.988848	-585.913611	1003.227601	1083.324696	-553.906993	941.832198	1065.647570	-578.898224	1243.029519	1042.847489	-140.226488	949.369296	1041.831653	-281.449936	
